<svg width="160" height="53" viewBox="0 0 160 53" fill="none" xmlns="http://www.w3.org/2000/svg">
<circle cx="20" cy="26.5" r="20" fill="#9696FF" fill-opacity="0.5"/>
<path d="M20 14.5L23.2411 23.2589L32 26.5L23.2411 29.7411L20 38.5L16.7589 29.7411L8 26.5L16.7589 23.2589L20 14.5Z" fill="#5A50F2"/>
<path d="M60.2303 39V20.3H53.1583V15.2H73.2523V20.3H66.0103V39H60.2303ZM87.1243 39.34C85.3336 39.34 83.679 39.0453 82.1603 38.456C80.6643 37.844 79.361 36.994 78.2503 35.906C77.1396 34.7953 76.2783 33.492 75.6663 31.996C75.077 30.4773 74.7823 28.8113 74.7823 26.998C74.7823 25.23 75.0996 23.598 75.7343 22.102C76.369 20.606 77.2416 19.314 78.3523 18.226C79.4856 17.1153 80.8116 16.254 82.3303 15.642C83.8716 15.03 85.549 14.724 87.3623 14.724C88.4956 14.724 89.6063 14.8713 90.6943 15.166C91.7823 15.4607 92.791 15.9027 93.7203 16.492C94.6723 17.0587 95.4883 17.7387 96.1683 18.532L92.6323 22.578C92.1563 22.0793 91.6463 21.6487 91.1023 21.286C90.581 20.9007 90.003 20.606 89.3683 20.402C88.7336 20.198 88.0536 20.096 87.3283 20.096C86.4216 20.096 85.5603 20.266 84.7443 20.606C83.951 20.9233 83.2483 21.388 82.6363 22C82.047 22.5893 81.5823 23.3147 81.2423 24.176C80.9023 25.0373 80.7323 26.0007 80.7323 27.066C80.7323 28.1087 80.9023 29.0607 81.2423 29.922C81.5823 30.7607 82.0583 31.486 82.6703 32.098C83.2823 32.71 84.019 33.1747 84.8803 33.492C85.7643 33.8093 86.739 33.968 87.8043 33.968C88.5296 33.968 89.221 33.866 89.8783 33.662C90.5356 33.458 91.1363 33.186 91.6803 32.846C92.247 32.4833 92.7456 32.0753 93.1763 31.622L95.9643 36.042C95.3976 36.6767 94.6383 37.2433 93.6863 37.742C92.757 38.2407 91.7143 38.6373 90.5583 38.932C89.425 39.204 88.2803 39.34 87.1243 39.34ZM99.9197 39V15.2H110.188C111.684 15.2 113.01 15.54 114.166 16.22C115.344 16.9 116.274 17.8293 116.954 19.008C117.656 20.1867 118.008 21.5127 118.008 22.986C118.008 24.5273 117.656 25.91 116.954 27.134C116.274 28.3353 115.344 29.2873 114.166 29.99C113.01 30.6927 111.684 31.044 110.188 31.044H105.7V39H99.9197ZM105.598 25.978H109.372C109.87 25.978 110.324 25.8533 110.732 25.604C111.14 25.3547 111.468 25.0147 111.718 24.584C111.967 24.1533 112.092 23.6547 112.092 23.088C112.092 22.4987 111.967 22 111.718 21.592C111.468 21.184 111.14 20.8667 110.732 20.64C110.324 20.4133 109.87 20.3 109.372 20.3H105.598V25.978ZM121.853 39V20.946H127.021L127.259 26.828L126.239 25.706C126.511 24.7313 126.953 23.8587 127.565 23.088C128.2 22.3173 128.937 21.7053 129.775 21.252C130.614 20.7987 131.509 20.572 132.461 20.572C132.869 20.572 133.243 20.606 133.583 20.674C133.946 20.742 134.275 20.8213 134.569 20.912L133.073 26.93C132.824 26.7713 132.484 26.6467 132.053 26.556C131.645 26.4427 131.215 26.386 130.761 26.386C130.263 26.386 129.798 26.4767 129.367 26.658C128.937 26.8167 128.574 27.0547 128.279 27.372C127.985 27.6893 127.747 28.0633 127.565 28.494C127.407 28.9247 127.327 29.412 127.327 29.956V39H121.853ZM145.062 39.34C143.181 39.34 141.504 38.932 140.03 38.116C138.58 37.3 137.424 36.1893 136.562 34.784C135.724 33.3787 135.304 31.7693 135.304 29.956C135.304 28.1427 135.724 26.5333 136.562 25.128C137.424 23.7227 138.58 22.612 140.03 21.796C141.504 20.98 143.181 20.572 145.062 20.572C146.944 20.572 148.61 20.98 150.06 21.796C151.534 22.612 152.69 23.7227 153.528 25.128C154.367 26.5333 154.786 28.1427 154.786 29.956C154.786 31.7693 154.367 33.3787 153.528 34.784C152.69 36.1893 151.534 37.3 150.06 38.116C148.61 38.932 146.944 39.34 145.062 39.34ZM145.062 34.648C145.878 34.648 146.604 34.444 147.238 34.036C147.873 33.628 148.372 33.0727 148.734 32.37C149.097 31.6673 149.267 30.8627 149.244 29.956C149.267 29.0493 149.097 28.2447 148.734 27.542C148.372 26.8167 147.873 26.25 147.238 25.842C146.604 25.434 145.878 25.23 145.062 25.23C144.246 25.23 143.51 25.434 142.852 25.842C142.218 26.25 141.719 26.8167 141.356 27.542C140.994 28.2447 140.824 29.0493 140.846 29.956C140.824 30.8627 140.994 31.6673 141.356 32.37C141.719 33.0727 142.218 33.628 142.852 34.036C143.51 34.444 144.246 34.648 145.062 34.648Z" fill="#2A2A41"/>
</svg>
